<svg width="35" height="35" viewBox="0 0 35 35" fill="none" xmlns="http://www.w3.org/2000/svg">
<rect x="1" y="1" width="33" height="33" rx="6" fill="#372466" stroke="white" stroke-width="2"/>
<path d="M20.1208 17.4998L23.9998 13.455C24.2517 13.1569 24.3851 12.77 24.3729 12.3731C24.3607 11.9761 24.2039 11.5989 23.9343 11.3181C23.6647 11.0372 23.3026 10.8739 22.9215 10.8612C22.5405 10.8485 22.1691 10.9875 21.8828 11.2498L17.9998 15.2905L14.1098 11.2373C13.9705 11.0922 13.8051 10.9771 13.623 10.8985C13.441 10.82 13.2459 10.7795 13.0488 10.7795C12.8518 10.7795 12.6567 10.82 12.4746 10.8985C12.2926 10.9771 12.1272 11.0922 11.9878 11.2373C11.8485 11.3825 11.738 11.5548 11.6626 11.7444C11.5872 11.934 11.5484 12.1373 11.5484 12.3425C11.5484 12.5478 11.5872 12.751 11.6626 12.9407C11.738 13.1303 11.8485 13.3026 11.9878 13.4477L15.8788 17.4998L11.9998 21.5436C11.8477 21.6852 11.7249 21.8577 11.639 22.0505C11.5531 22.2433 11.5058 22.4523 11.5001 22.6648C11.4944 22.8773 11.5304 23.0887 11.6058 23.2862C11.6812 23.4837 11.7946 23.6631 11.9389 23.8134C12.0831 23.9637 12.2553 24.0817 12.4449 24.1603C12.6345 24.2389 12.8375 24.2763 13.0415 24.2704C13.2454 24.2644 13.4461 24.2152 13.6312 24.1257C13.8162 24.0362 13.9818 23.9083 14.1178 23.7498L17.9998 19.7092L21.8778 23.7498C22.1592 24.043 22.5409 24.2076 22.9388 24.2076C23.3368 24.2076 23.7184 24.043 23.9998 23.7498C24.2812 23.4567 24.4393 23.0592 24.4393 22.6446C24.4393 22.2301 24.2812 21.8325 23.9998 21.5394L20.1208 17.4998Z" fill="white"/>
</svg>
