<svg width="45" height="45" viewBox="0 0 45 45" fill="none" xmlns="http://www.w3.org/2000/svg">
<circle cx="22.5" cy="22.5" r="22.5" transform="matrix(-1 0 0 1 45 0)" fill="#966AFE"/>
<path d="M17.9375 20.3189L22.9057 15.3507C23.2105 15.046 23.6239 14.8749 24.0549 14.875C24.4859 14.8751 24.8993 15.0464 25.204 15.3513C25.5087 15.6561 25.6798 16.0695 25.6797 16.5005C25.6796 16.9315 25.5083 17.3449 25.2034 17.6496L20.2353 22.6166C20.1848 22.667 20.1448 22.7267 20.1175 22.7925C20.0902 22.8583 20.0761 22.9289 20.0761 23.0001C20.0761 23.0714 20.0902 23.1419 20.1175 23.2077C20.1448 23.2735 20.1848 23.3333 20.2353 23.3836L25.2034 28.3507C25.5083 28.6554 25.6796 29.0687 25.6797 29.4998C25.6798 29.9308 25.5087 30.3442 25.204 30.649C24.8993 30.9539 24.4859 31.1252 24.0549 31.1253C23.6239 31.1254 23.2105 30.9543 22.9057 30.6496L17.9375 25.6814C17.2277 24.9696 16.8291 24.0054 16.8291 23.0001C16.8291 21.9949 17.2277 21.0307 17.9375 20.3189Z" fill="white"/>
</svg>
