<svg width="22" height="22" viewBox="0 0 22 22" fill="none" xmlns="http://www.w3.org/2000/svg">
<path d="M20.625 9.625H1.375C0.615613 9.625 0 10.2406 0 11C0 11.7594 0.615613 12.375 1.375 12.375H20.625C21.3844 12.375 22 11.7594 22 11C22 10.2406 21.3844 9.625 20.625 9.625Z" fill="#0D160B"/>
<path d="M1.375 5.95826H20.625C21.3844 5.95826 22 5.34264 22 4.58326C22 3.82387 21.3844 3.20825 20.625 3.20825H1.375C0.615613 3.20825 0 3.82387 0 4.58326C0 5.34264 0.615613 5.95826 1.375 5.95826Z" fill="#0D160B"/>
<path d="M20.625 16.0415H1.375C0.615613 16.0415 0 16.6571 0 17.4165C0 18.1759 0.615613 18.7915 1.375 18.7915H20.625C21.3844 18.7915 22 18.1759 22 17.4165C22 16.6571 21.3844 16.0415 20.625 16.0415Z" fill="#0D160B"/>
</svg>
