<svg width="114" height="30" viewBox="0 0 114 30" fill="none" xmlns="http://www.w3.org/2000/svg">
<path d="M30.5698 8.97949H34.9182C37.258 8.97949 40.8324 8.97949 40.8324 12.8304C40.8324 14.8202 39.8744 16.11 37.7555 16.6627L41.0536 21.8769H30.5698V8.97949Z" fill="white"/>
<path d="M42.4302 16.5554C42.6995 15.4846 43.5143 14.6348 44.5699 14.3108C47.8445 13.3056 50.4911 15.084 50.4911 18.0449V21.8773H48.4643V21.214C47.9854 21.7298 47.1378 22.0616 46.1797 22.0616C43.4036 22.0616 41.6287 19.7429 42.4302 16.5554ZM48.1262 16.8021C48.0197 16.5824 47.7485 16.3174 47.5267 16.2153C45.4113 15.2416 43.5909 17.0407 44.5748 19.2592C44.6806 19.4977 44.9643 19.7843 45.2038 19.8878C47.471 20.8671 49.135 18.8831 48.1262 16.8021Z" fill="white"/>
<path d="M51.2651 14.2124H53.3286L55.3924 19.7768L57.4559 14.2124H59.5194L56.4242 21.8772H54.3605L51.2651 14.2124Z" fill="white"/>
<path d="M60.1153 16.5554C60.3846 15.4846 61.1995 14.6348 62.2551 14.3108C65.5297 13.3056 68.1762 15.084 68.1762 18.0449V21.8772H66.1495V21.2139C65.6705 21.7298 64.8229 22.0615 63.8649 22.0615C61.0888 22.0615 59.3137 19.7429 60.1153 16.5554ZM65.8114 16.8022C65.7049 16.5825 65.4338 16.3174 65.212 16.2153C63.0967 15.2415 61.2758 17.0407 62.2599 19.2591C62.3657 19.4977 62.6493 19.7842 62.8889 19.8877C65.1561 20.8672 66.8202 18.8832 65.8114 16.8022Z" fill="white"/>
<path d="M70.1675 18.0449C70.1675 15.6497 72.231 14.0283 74.3314 14.0283C76.7266 14.0283 78.4218 15.6497 78.4218 18.0449V21.8772H76.358V17.4298C76.358 16.9943 76.1301 16.5868 75.7531 16.3688C73.9268 15.3128 72.231 16.3609 72.231 18.0449V21.8772H70.1675L70.1675 18.0449Z" fill="white"/>
<path d="M86.5401 8.48877V10.7998H83.832V21.8565H81.5209V10.7998H78.8125V8.48877H86.5401Z" fill="white"/>
<path d="M86.7972 16.4226C87.083 15.4432 88.1475 14.4476 89.141 14.2159C92.3793 13.4608 94.6299 15.0351 94.807 18.0449V18.745H88.5794C88.8374 19.6663 89.648 20.2928 90.6797 20.2928C91.3429 20.2928 91.7115 20.1085 92.2643 19.5926L93.5172 20.8824C92.7801 21.6193 91.7852 22.0615 90.6797 22.0615C87.7759 22.0615 85.8471 19.6783 86.7972 16.4226ZM92.7801 17.1605C92.4855 16.2761 91.7484 15.6865 90.6797 15.6865C89.648 15.6865 88.9111 16.313 88.6162 17.1605H92.7801Z" fill="white"/>
<path d="M96.3276 16.4038C96.6406 15.3425 97.7996 14.3295 98.8912 14.1485C100.675 13.8526 101.979 14.0704 103.079 15.1707L101.716 16.534C101.31 16.1656 100.794 15.9444 100.205 15.9444C99.0255 15.9444 98.1411 16.8289 98.1411 18.0449C98.1411 19.2241 99.0255 20.1453 100.205 20.1453C100.758 20.1453 101.31 19.8873 101.679 19.5189L103.042 20.8455C102.305 21.6193 101.273 22.0615 100.205 22.0615C97.2952 22.0615 95.3646 19.6691 96.3276 16.4038Z" fill="white"/>
<path d="M105.146 8.46486H107.209V14.8767C107.652 14.3608 108.499 14.0292 109.457 14.0292C111.779 14.0292 113.4 15.6506 113.4 18.0459V21.8782H111.337V17.4308C111.337 16.9953 111.109 16.5879 110.732 16.3699C108.906 15.3137 107.21 16.3618 107.21 18.0459V21.8782H105.146L105.146 8.46486Z" fill="white"/>
<path d="M12.888 7.98577L12.8485 21.89L0.578125 14.8056L0.617552 0.901367L12.888 7.98577Z" fill="white"/>
<path d="M25.7419 15.0154L25.6994 0.0176195L12.9126 7.40015L0.0953342 0L0 14.8553L0.0425126 29.8531L12.718 22.5348L25.6479 30L25.7419 15.0154ZM0.616517 0.901598L12.3924 7.7005L0.5779 14.5217L0.616517 0.901598ZM13.37 22.3105L13.3704 22.1581L25.1657 15.348L25.1267 29.0984L13.37 22.3105Z" fill="#231F20"/>
<path d="M25.1649 15.2453L25.1256 29.0988L12.9004 22.0404L12.9397 8.18701L25.1649 15.2453Z" fill="white"/>
</svg>
