<svg width="114" height="30" viewBox="0 0 114 30" fill="none" xmlns="http://www.w3.org/2000/svg">
<path d="M30.5728 8.97974H34.9212C37.2611 8.97974 40.8356 8.97974 40.8356 12.8306C40.8356 14.8204 39.8775 16.1102 37.7585 16.6629L41.0567 21.8772H30.5728V8.97974Z" fill="#231F20"/>
<path d="M42.4317 16.5539C42.7009 15.4831 43.5158 14.6334 44.5714 14.3094C47.8461 13.3041 50.4927 15.0825 50.4927 18.0435V21.8758H48.4659V21.2125C47.987 21.7284 47.1394 22.0601 46.1812 22.0601C43.4051 22.0601 41.6302 19.7414 42.4317 16.5539ZM48.1278 16.8006C48.0212 16.5809 47.7501 16.3159 47.5283 16.2138C45.4128 15.2401 43.5924 17.0393 44.5763 19.2577C44.6821 19.4962 44.9658 19.7828 45.2053 19.8863C47.4725 20.8657 49.1366 18.8817 48.1278 16.8006Z" fill="#231F20"/>
<path d="M51.2676 14.2109H53.3311L55.3949 19.7753L57.4585 14.2109H59.522L56.4267 21.8757H54.363L51.2676 14.2109Z" fill="#231F20"/>
<path d="M60.1158 16.554C60.3851 15.4831 61.2 14.6334 62.2556 14.3093C65.5303 13.3042 68.1768 15.0825 68.1768 18.0435V21.8758H66.1501V21.2125C65.6711 21.7283 64.8235 22.0601 63.8654 22.0601C61.0893 22.0601 59.3142 19.7414 60.1158 16.554ZM65.812 16.8007C65.7055 16.581 65.4344 16.316 65.2126 16.2139C63.0972 15.24 61.2763 17.0392 62.2604 19.2577C62.3662 19.4962 62.6499 19.7828 62.8894 19.8863C65.1567 20.8657 66.8208 18.8817 65.812 16.8007Z" fill="#231F20"/>
<path d="M70.1699 18.0435C70.1699 15.6482 72.2335 14.0269 74.3339 14.0269C76.7292 14.0269 78.4244 15.6482 78.4244 18.0435V21.8758H76.3606V17.4283C76.3606 16.9928 76.1327 16.5853 75.7557 16.3673C73.9293 15.3114 72.2335 16.3595 72.2335 18.0435V21.8758H70.1699L70.1699 18.0435Z" fill="#231F20"/>
<path d="M86.5407 8.48828V10.7993H83.8326V21.8559H81.5214V10.7993H78.813V8.48828H86.5407Z" fill="#231F20"/>
<path d="M86.8016 16.4211C87.0874 15.4417 88.1519 14.4461 89.1454 14.2144C92.3838 13.4593 94.6344 15.0336 94.8116 18.0435V18.7435H88.5838C88.8418 19.6648 89.6524 20.2913 90.6842 20.2913C91.3474 20.2913 91.716 20.107 92.2689 19.5911L93.5218 20.8809C92.7846 21.6178 91.7897 22.0601 90.6842 22.0601C87.7803 22.0601 85.8515 19.6768 86.8016 16.4211ZM92.7846 17.159C92.49 16.2747 91.7529 15.6851 90.6842 15.6851C89.6524 15.6851 88.9155 16.3115 88.6207 17.159H92.7846Z" fill="#231F20"/>
<path d="M96.3281 16.4024C96.6411 15.341 97.8001 14.328 98.8917 14.147C100.676 13.8511 101.979 14.0689 103.08 15.1692L101.716 16.5325C101.311 16.1641 100.795 15.943 100.205 15.943C99.026 15.943 98.1417 16.8274 98.1417 18.0435C98.1417 19.2226 99.026 20.1438 100.205 20.1438C100.758 20.1438 101.311 19.8858 101.679 19.5174L103.043 20.844C102.306 21.6178 101.274 22.0601 100.205 22.0601C97.2957 22.0601 95.3651 19.6677 96.3281 16.4024Z" fill="#231F20"/>
<path d="M105.146 8.46535H107.209V14.8772C107.651 14.3613 108.499 14.0297 109.457 14.0297C111.778 14.0297 113.4 15.6511 113.4 18.0463V21.8786H111.336V17.4312C111.336 16.9958 111.109 16.5884 110.732 16.3704C108.906 15.3141 107.209 16.3622 107.209 18.0463V21.8786H105.146L105.146 8.46535Z" fill="#231F20"/>
<path d="M12.8853 7.98576L12.8459 21.8899L0.575195 14.8056L0.614623 0.901367L12.8853 7.98576Z" fill="white"/>
<path d="M25.7424 15.0154L25.6999 0.0176195L12.9129 7.40015L0.0953362 0L0 14.8553L0.0425135 29.8531L12.7183 22.5348L25.6484 30L25.7424 15.0154ZM0.616529 0.901598L12.3927 7.7005L0.577912 14.5217L0.616529 0.901598ZM13.3703 22.3105L13.3707 22.1581L25.1662 15.348L25.1273 29.0984L13.3703 22.3105Z" fill="#231F20"/>
<path d="M25.1671 15.2458L25.1278 29.0992L12.9023 22.0409L12.9416 8.1875L25.1671 15.2458Z" fill="white"/>
</svg>
