<svg width="45" height="45" viewBox="0 0 45 45" fill="none" xmlns="http://www.w3.org/2000/svg">
<circle cx="22.5" cy="22.5" r="22.5" fill="#966AFE"/>
<path d="M27.0625 20.3189L22.0943 15.3507C21.7895 15.046 21.3761 14.8749 20.9451 14.875C20.5141 14.8751 20.1007 15.0464 19.796 15.3513C19.4913 15.6561 19.3202 16.0695 19.3203 16.5005C19.3204 16.9315 19.4917 17.3449 19.7966 17.6496L24.7647 22.6166C24.8152 22.667 24.8552 22.7267 24.8825 22.7925C24.9098 22.8583 24.9239 22.9289 24.9239 23.0001C24.9239 23.0714 24.9098 23.1419 24.8825 23.2077C24.8552 23.2735 24.8152 23.3333 24.7647 23.3836L19.7966 28.3507C19.4917 28.6554 19.3204 29.0687 19.3203 29.4998C19.3202 29.9308 19.4913 30.3442 19.796 30.649C20.1007 30.9539 20.5141 31.1252 20.9451 31.1253C21.3761 31.1254 21.7895 30.9543 22.0943 30.6496L27.0625 25.6814C27.7723 24.9696 28.1709 24.0054 28.1709 23.0001C28.1709 21.9949 27.7723 21.0307 27.0625 20.3189Z" fill="white"/>
</svg>
